<?xml version="1.0" standalone="no"?>
<!DOCTYPE svg PUBLIC "-//W3C//DTD SVG 20010904//EN"
 "http://www.w3.org/TR/2001/REC-SVG-20010904/DTD/svg10.dtd">
<svg version="1.0" xmlns="http://www.w3.org/2000/svg"
 width="400.000000pt" height="400.000000pt" viewBox="0 0 400.000000 400.000000"
 preserveAspectRatio="xMidYMid meet">
<metadata>
Created by potrace 1.11, written by Peter Selinger 2001-2013
</metadata>
<g transform="translate(0.000000,400.000000) scale(0.100000,-0.100000)"
fill="#000000" stroke="none">
<path d="M1136 3930 c-37 -38 -71 -70 -74 -70 -4 -1 -20 -19 -37 -40 -16 -21
-36 -39 -42 -40 -7 0 -13 -3 -13 -8 0 -11 -140 -152 -151 -152 -5 0 -9 -4 -9
-8 0 -9 -220 -232 -229 -232 -3 -1 -19 -19 -36 -40 -16 -21 -36 -39 -42 -40
-7 0 -13 -4 -13 -8 0 -10 -221 -232 -231 -232 -4 0 -9 -4 -11 -10 -4 -13 -138
-150 -146 -150 -4 -1 -20 -19 -37 -40 -16 -21 -35 -39 -41 -40 -7 0 -15 -7
-18 -16 -3 -9 -6 -643 -6 -1410 l0 -1394 448 0 447 0 202 203 201 202 694 -2
c381 0 698 -2 704 -2 5 -1 100 -91 210 -201 l199 -200 448 0 447 0 0 1398 0
1397 -603 603 -602 602 -795 0 -795 0 -69 -70z"/>
</g>
</svg>
