<?xml version="1.0" standalone="no"?>
<!DOCTYPE svg PUBLIC "-//W3C//DTD SVG 20010904//EN"
 "http://www.w3.org/TR/2001/REC-SVG-20010904/DTD/svg10.dtd">
<svg version="1.0" xmlns="http://www.w3.org/2000/svg"
 width="400.000000pt" height="400.000000pt" viewBox="0 0 400.000000 400.000000"
 preserveAspectRatio="xMidYMid meet">
<metadata>
Created by potrace 1.11, written by Peter Selinger 2001-2013
</metadata>
<g transform="translate(0.000000,400.000000) scale(0.100000,-0.100000)"
fill="#000000" stroke="none">
<path d="M0 2304 l0 -1697 304 -303 304 -304 1568 3 c863 1 1578 6 1589 9 11
4 22 7 25 8 3 1 8 2 13 1 4 0 7 4 7 9 0 5 3 9 8 8 24 -7 132 87 132 116 0 9 4
16 9 16 8 0 23 44 25 72 1 3 4 9 8 13 4 4 7 160 8 347 l0 340 -102 103 -103
103 0 803 0 803 103 101 102 102 0 317 0 318 -204 204 -203 204 -1797 0 -1796
0 0 -1696z"/>
</g>
</svg>
